<svg xmlns="http://www.w3.org/2000/svg" viewBox="0 0 1600 1000" role="img" aria-labelledby="title">
  <title id="title">ShowTheCash project placeholder</title>
  <defs>
    <linearGradient id="bg" x1="0" x2="1" y1="0" y2="1">
      <stop offset="0%" stop-color="#102038"/>
      <stop offset="100%" stop-color="#08101d"/>
    </linearGradient>
    <linearGradient id="accent" x1="0" x2="1" y1="0" y2="1">
      <stop offset="0%" stop-color="#8ad0b3"/>
      <stop offset="100%" stop-color="#e7b87c"/>
    </linearGradient>
  </defs>
  <rect width="1600" height="1000" fill="url(#bg)"/>
  <rect x="70" y="70" width="1460" height="860" rx="38" fill="none" stroke="#213450"/>
  <rect x="150" y="150" width="620" height="700" rx="28" fill="#0d192a" stroke="#2b3e5c"/>
  <rect x="830" y="150" width="620" height="700" rx="28" fill="#0d192a" stroke="#2b3e5c"/>
  <rect x="210" y="220" width="180" height="46" rx="23" fill="url(#accent)"/>
  <text x="210" y="520" fill="#f4f7fb" font-family="Arial, Helvetica, sans-serif" font-size="86" font-weight="700">ShowTheCash</text>
  <text x="210" y="585" fill="#9fb0c6" font-family="Arial, Helvetica, sans-serif" font-size="28">Payments, onboarding, clean conversion flow, and deployment-ready delivery.</text>
  <rect x="210" y="640" width="230" height="56" rx="28" fill="#12243a" stroke="#31506c"/>
  <text x="325" y="675" fill="#8ad0b3" font-family="Arial, Helvetica, sans-serif" font-size="24" text-anchor="middle">Stripe Checkout</text>
  <rect x="900" y="240" width="480" height="76" rx="22" fill="#12243a"/>
  <rect x="900" y="360" width="480" height="76" rx="22" fill="#12243a"/>
  <rect x="900" y="480" width="480" height="76" rx="22" fill="#12243a"/>
  <rect x="900" y="640" width="320" height="72" rx="36" fill="url(#accent)"/>
</svg>
