<svg xmlns="http://www.w3.org/2000/svg" viewBox="0 0 1600 1000" role="img" aria-labelledby="title">
  <title id="title">Discord bot project preview</title>
  <defs>
    <linearGradient id="bg" x1="0" x2="1" y1="0" y2="1">
      <stop offset="0%" stop-color="#101a31"/>
      <stop offset="100%" stop-color="#0a1120"/>
    </linearGradient>
    <linearGradient id="accent" x1="0" x2="1" y1="0" y2="1">
      <stop offset="0%" stop-color="#5865f2"/>
      <stop offset="100%" stop-color="#8ab5ff"/>
    </linearGradient>
  </defs>
  <rect width="1600" height="1000" fill="url(#bg)"/>
  <circle cx="1320" cy="180" r="150" fill="#5865f2" opacity=".08"/>
  <rect x="90" y="90" width="1420" height="820" rx="42" fill="none" stroke="#243752"/>
  <rect x="160" y="160" width="400" height="600" rx="30" fill="#0d192a" stroke="#2b3e5c"/>
  <rect x="620" y="160" width="820" height="110" rx="24" fill="#0d192a" stroke="#2b3e5c"/>
  <rect x="620" y="320" width="390" height="220" rx="24" fill="#0d192a" stroke="#2b3e5c"/>
  <rect x="1050" y="320" width="390" height="220" rx="24" fill="#0d192a" stroke="#2b3e5c"/>
  <rect x="620" y="590" width="820" height="170" rx="28" fill="#0d192a" stroke="#2b3e5c"/>
  <rect x="210" y="228" width="300" height="54" rx="27" fill="url(#accent)" opacity=".88"/>
  <circle cx="360" cy="458" r="118" fill="#5865f2" opacity=".12"/>
  <path d="M438 396C419 384 389 374 360 374C331 374 301 384 282 396L262 556C288 572 324 582 360 582C396 582 432 572 458 556L438 396Z" fill="#f4f7fb"/>
  <circle cx="322" cy="470" r="22" fill="#5865f2"/>
  <circle cx="398" cy="470" r="22" fill="#5865f2"/>
  <path d="M320 528C332 540 346 546 360 546C374 546 388 540 400 528" stroke="#5865f2" stroke-width="12" stroke-linecap="round"/>
  <path d="M304 390L278 348" stroke="#f4f7fb" stroke-width="14" stroke-linecap="round"/>
  <path d="M416 390L442 348" stroke="#f4f7fb" stroke-width="14" stroke-linecap="round"/>
  <text x="220" y="660" fill="#f4f7fb" font-family="Arial, Helvetica, sans-serif" font-size="54" font-weight="700">DiscordBot</text>
  <text x="220" y="726" fill="#9fb0c6" font-family="Arial, Helvetica, sans-serif" font-size="26">Music, AutoDJ, voice tools, game feeds, and community automation.</text>
  <text x="670" y="228" fill="#f4f7fb" font-family="Arial, Helvetica, sans-serif" font-size="54" font-weight="700">Server dashboard</text>
  <text x="670" y="396" fill="#f4f7fb" font-family="Arial, Helvetica, sans-serif" font-size="34" font-weight="700">Queue and playback</text>
  <text x="670" y="442" fill="#9fb0c6" font-family="Arial, Helvetica, sans-serif" font-size="24">YouTube, Spotify, queue, loop, shuffle, and volume control.</text>
  <text x="1100" y="396" fill="#f4f7fb" font-family="Arial, Helvetica, sans-serif" font-size="34" font-weight="700">Community tools</text>
  <text x="1100" y="442" fill="#9fb0c6" font-family="Arial, Helvetica, sans-serif" font-size="24">Voice groups, AutoDJ, AI mixtapes, and Steam deals feed.</text>
  <rect x="670" y="652" width="320" height="52" rx="26" fill="url(#accent)" opacity=".86"/>
</svg>
