<svg xmlns="http://www.w3.org/2000/svg" viewBox="0 0 1600 1000" role="img" aria-labelledby="title">
  <title id="title">CWN support center website preview</title>
  <defs>
    <linearGradient id="bg" x1="0" x2="1" y1="0" y2="1">
      <stop offset="0%" stop-color="#131c2f"/>
      <stop offset="100%" stop-color="#08101d"/>
    </linearGradient>
    <linearGradient id="hero" x1="0" x2="1" y1="0" y2="1">
      <stop offset="0%" stop-color="#a8adb5"/>
      <stop offset="100%" stop-color="#7f868f"/>
    </linearGradient>
    <linearGradient id="accent" x1="0" x2="1" y1="0" y2="1">
      <stop offset="0%" stop-color="#f0c85c"/>
      <stop offset="100%" stop-color="#e7b87c"/>
    </linearGradient>
  </defs>
  <rect width="1600" height="1000" fill="url(#bg)"/>
  <rect x="70" y="70" width="1460" height="860" rx="40" fill="none" stroke="#243752"/>
  <rect x="120" y="120" width="1360" height="90" rx="0" fill="#2d3239"/>
  <rect x="120" y="210" width="1360" height="620" fill="url(#hero)"/>
  <rect x="120" y="830" width="1360" height="60" fill="#2d3239" opacity=".24"/>

  <rect x="154" y="146" width="210" height="38" rx="10" fill="#23282f"/>
  <rect x="402" y="150" width="126" height="16" rx="8" fill="#f4f7fb" opacity=".9"/>
  <rect x="560" y="150" width="96" height="16" rx="8" fill="#f4f7fb" opacity=".82"/>
  <rect x="686" y="150" width="132" height="16" rx="8" fill="#f4f7fb" opacity=".82"/>
  <rect x="852" y="150" width="118" height="16" rx="8" fill="#f4f7fb" opacity=".82"/>
  <rect x="1006" y="150" width="104" height="16" rx="8" fill="#f4f7fb" opacity=".82"/>
  <rect x="1148" y="150" width="112" height="16" rx="8" fill="#f4f7fb" opacity=".82"/>
  <rect x="1330" y="138" width="56" height="40" rx="18" fill="none" stroke="#f0c85c" stroke-width="3"/>
  <rect x="1398" y="138" width="56" height="40" rx="18" fill="none" stroke="#d9dee5" opacity=".8"/>

  <g opacity=".32">
    <circle cx="455" cy="625" r="112" fill="#2c3137"/>
    <circle cx="820" cy="612" r="126" fill="#2c3137"/>
    <circle cx="1180" cy="618" r="108" fill="#2c3137"/>
  </g>

  <rect x="230" y="475" width="66" height="8" rx="4" fill="#f4f7fb"/>
  <rect x="230" y="523" width="40" height="8" rx="4" fill="#f4f7fb" opacity=".92"/>
  <rect x="230" y="570" width="40" height="8" rx="4" fill="#f4f7fb" opacity=".78"/>
  <rect x="230" y="617" width="40" height="8" rx="4" fill="#f4f7fb" opacity=".78"/>

  <text x="800" y="480" fill="#f4f7fb" font-family="Arial, Helvetica, sans-serif" font-size="64" font-weight="500" text-anchor="middle">Centrum Wsparcia</text>
  <text x="800" y="560" fill="#f4f7fb" font-family="Arial, Helvetica, sans-serif" font-size="86" font-weight="700" text-anchor="middle">Osob z Niepelnosprawnosciami</text>
  <text x="800" y="628" fill="#f4f7fb" font-family="Arial, Helvetica, sans-serif" font-size="36" font-weight="600" text-anchor="middle">Uniwersytetu w Siedlcach</text>
  <rect x="675" y="668" width="250" height="54" rx="27" fill="none" stroke="#f4f7fb" stroke-width="2.5"/>
  <text x="800" y="703" fill="#f4f7fb" font-family="Arial, Helvetica, sans-serif" font-size="24" font-weight="600" text-anchor="middle">Wiecej o naszej dzialalnosci</text>
</svg>
